<svg xmlns="http://www.w3.org/2000/svg" fill="none" viewBox="0 0 40 40"><path fill="#761AD3" d="M27.384 5.923L3.651 11.919c-2.016.51-3.213 2.464-2.673 4.366l3.914 13.772c.54 1.901 2.613 3.03 4.63 2.52l23.732-5.996c2.017-.51 3.213-2.464 2.673-4.366L32.014 8.443c-.54-1.901-2.613-3.03-4.63-2.52z"/><path fill="#909191" d="M34.22 12.113H9.65c-2.088 0-3.78 1.596-3.78 3.565v14.258c0 1.968 1.692 3.564 3.78 3.564h24.57c2.088 0 3.78-1.596 3.78-3.564V15.678c0-1.969-1.692-3.565-3.78-3.565z"/><path fill="#EDEDED" d="M26.66 28.6c0-.739.564-1.337 1.26-1.337h5.04c.696 0 1.26.598 1.26 1.336 0 .739-.564 1.337-1.26 1.337h-5.04c-.696 0-1.26-.598-1.26-1.337zM38 16.57H5.87v4.455H38v-4.456z"/></svg>